<svg xmlns="http://www.w3.org/2000/svg" version="1.1" xmlns:xlink="http://www.w3.org/1999/xlink" xmlns:svgjs="http://svgjs.dev/svgjs" width="2000" height="247" viewBox="0 0 2000 247"><g transform="matrix(1,0,0,1,-1.2121212121212466,-0.48750283430489105)"><svg viewBox="0 0 396 49" data-background-color="#000000" preserveAspectRatio="xMidYMid meet" height="247" width="2000" xmlns="http://www.w3.org/2000/svg" xmlns:xlink="http://www.w3.org/1999/xlink"><g id="tight-bounds" transform="matrix(1,0,0,1,0.2400000000000091,0.096711088586801)"><svg viewBox="0 0 395.52 48.806577822826384" height="48.806577822826384" width="395.52"><g><svg viewBox="0 0 462.3140672925356 57.048866059619066" height="48.806577822826384" width="395.52"><g transform="matrix(1,0,0,1,66.79406729253559,7.884467016922752)"><svg viewBox="0 0 395.52 41.27993202577356" height="41.27993202577356" width="395.52"><g id="textblocktransform"><svg viewBox="0 0 395.52 41.27993202577356" height="41.27993202577356" width="395.52" id="textblock"><g><svg viewBox="0 0 395.52 41.27993202577356" height="41.27993202577356" width="395.52"><g transform="matrix(1,0,0,1,0,0)"><svg width="395.52" viewBox="3.49 -35.5 344.77 35.99" height="41.27993202577356" data-palette-color="#ffffff"><path d="M23.19-8.11L23.19-8.11Q23.19-6.32 22.52-4.76 21.85-3.2 20.68-2.03 19.51-0.85 17.94-0.18 16.38 0.49 14.6 0.49L14.6 0.49 12.11 0.49Q10.33 0.49 8.75-0.18 7.18-0.85 6.01-2.03 4.83-3.2 4.16-4.76 3.49-6.32 3.49-8.11L3.49-8.11 3.49-26.9Q3.49-28.69 4.16-30.25 4.83-31.81 6.01-32.98 7.18-34.16 8.75-34.83 10.33-35.5 12.11-35.5L12.11-35.5 14.6-35.5Q16.38-35.5 17.94-34.83 19.51-34.16 20.68-32.98 21.85-31.81 22.52-30.25 23.19-28.69 23.19-26.9L23.19-26.9 23.19-25.49 20.04-25 20.04-26.9Q20.04-28.08 19.6-29.09 19.17-30.1 18.41-30.86 17.65-31.62 16.64-32.06 15.63-32.5 14.45-32.5L14.45-32.5 12.26-32.5Q11.08-32.5 10.07-32.06 9.06-31.62 8.29-30.86 7.52-30.1 7.08-29.09 6.64-28.08 6.64-26.9L6.64-26.9 6.64-8.11Q6.64-6.93 7.08-5.92 7.52-4.91 8.29-4.14 9.06-3.37 10.07-2.93 11.08-2.49 12.26-2.49L12.26-2.49 14.45-2.49Q15.63-2.49 16.64-2.93 17.65-3.37 18.41-4.14 19.17-4.91 19.6-5.92 20.04-6.93 20.04-8.11L20.04-8.11 20.04-10.01 23.19-9.5 23.19-8.11ZM49.9 0L46.75 0 46.75-15.99 33.35-15.99 33.35 0 30.2 0 30.2-35.01 33.35-35.01 33.35-18.99 46.75-18.99 46.75-35.01 49.9-35.01 49.9 0ZM73.36 0L71.04-8.15 59.96-8.15 57.66 0 54.39 0 64.64-35.01 66.3-35.01 76.61 0 73.36 0ZM65.4-27.29L60.81-11.16 70.21-11.16 65.6-27.29 65.5-28.59 65.4-27.29ZM102.09 0L98.19 0 85-17.5 98.19-35.01 102.09-35.01 88.64-17.5 102.09 0ZM84.25 0L81.1 0 81.1-35.01 84.25-35.01 84.25 0ZM127.19 0L123.55 0 114.05-14.94 109.73-14.94 109.73 0 106.58 0 106.58-35.01 117.69-35.01Q119.47-35.01 121.03-34.34 122.6-33.67 123.77-32.5 124.94-31.32 125.61-29.75 126.28-28.17 126.28-26.39L126.28-26.39 126.28-23.56Q126.28-21.78 125.61-20.2 124.94-18.63 123.77-17.46 122.6-16.28 121.03-15.61 119.47-14.94 117.69-14.94L117.69-14.94 127.19 0ZM123.13-23.56L123.13-26.39Q123.13-27.56 122.7-28.58 122.26-29.59 121.5-30.36 120.74-31.13 119.73-31.57 118.72-32.01 117.54-32.01L117.54-32.01 109.73-32.01 109.73-17.94 117.54-17.94Q118.72-17.94 119.73-18.38 120.74-18.82 121.5-19.59 122.26-20.36 122.7-21.37 123.13-22.39 123.13-23.56L123.13-23.56ZM148.64 0L146.33-8.15 135.24-8.15 132.95 0 129.68 0 139.93-35.01 141.59-35.01 151.89 0 148.64 0ZM140.69-27.29L136.1-11.16 145.5-11.16 140.88-27.29 140.78-28.59 140.69-27.29ZM187.07-8.11L187.07-8.11Q187.07-6.32 186.4-4.76 185.72-3.2 184.55-2.03 183.38-0.85 181.82-0.18 180.26 0.49 178.47 0.49L178.47 0.49 175.98 0.49Q174.2 0.49 172.63-0.18 171.05-0.85 169.88-2.03 168.71-3.2 168.04-4.76 167.37-6.32 167.37-8.11L167.37-8.11 167.37-26.9Q167.37-28.69 168.04-30.25 168.71-31.81 169.88-32.98 171.05-34.16 172.63-34.83 174.2-35.5 175.98-35.5L175.98-35.5 178.47-35.5Q180.26-35.5 181.82-34.83 183.38-34.16 184.55-32.98 185.72-31.81 186.4-30.25 187.07-28.69 187.07-26.9L187.07-26.9 187.07-25.49 183.92-25 183.92-26.9Q183.92-28.08 183.48-29.09 183.04-30.1 182.28-30.86 181.53-31.62 180.51-32.06 179.5-32.5 178.33-32.5L178.33-32.5 176.13-32.5Q174.96-32.5 173.94-32.06 172.93-31.62 172.16-30.86 171.39-30.1 170.95-29.09 170.51-28.08 170.51-26.9L170.51-26.9 170.51-8.11Q170.51-6.93 170.95-5.92 171.39-4.91 172.16-4.14 172.93-3.37 173.94-2.93 174.96-2.49 176.13-2.49L176.13-2.49 178.33-2.49Q179.5-2.49 180.51-2.93 181.53-3.37 182.28-4.14 183.04-4.91 183.48-5.92 183.92-6.93 183.92-8.11L183.92-8.11 183.92-10.01 187.07-9.5 187.07-8.11ZM213.26-8.11L213.26-8.11Q213.26-6.32 212.59-4.76 211.92-3.2 210.75-2.03 209.57-0.85 208.01-0.18 206.45 0.49 204.67 0.49L204.67 0.49 202.18 0.49Q200.4 0.49 198.82-0.18 197.25-0.85 196.07-2.03 194.9-3.2 194.23-4.76 193.56-6.32 193.56-8.11L193.56-8.11 193.56-26.9Q193.56-28.69 194.23-30.25 194.9-31.81 196.07-32.98 197.25-34.16 198.82-34.83 200.4-35.5 202.18-35.5L202.18-35.5 204.67-35.5Q206.45-35.5 208.01-34.83 209.57-34.16 210.75-32.98 211.92-31.81 212.59-30.25 213.26-28.69 213.26-26.9L213.26-26.9 213.26-8.11ZM210.11-8.11L210.11-26.9Q210.11-28.08 209.67-29.09 209.23-30.1 208.48-30.86 207.72-31.62 206.71-32.06 205.69-32.5 204.52-32.5L204.52-32.5 202.32-32.5Q201.15-32.5 200.14-32.06 199.13-31.62 198.36-30.86 197.59-30.1 197.15-29.09 196.71-28.08 196.71-26.9L196.71-26.9 196.71-8.11Q196.71-6.93 197.15-5.92 197.59-4.91 198.36-4.14 199.13-3.37 200.14-2.93 201.15-2.49 202.32-2.49L202.32-2.49 204.52-2.49Q205.69-2.49 206.71-2.93 207.72-3.37 208.48-4.14 209.23-4.91 209.67-5.92 210.11-6.93 210.11-8.11L210.11-8.11ZM245.49 0L242.34 0 242.34-24 242.12-22.51 233.99 0 232.33 0 224.12-22.51 223.93-24 223.93 0 220.78 0 220.78-35.01 222.41-35.01 233.03-6.3 233.13-5 233.23-6.3 243.83-35.01 245.49-35.01 245.49 0ZM273.17-22.05L273.17-22.05Q273.17-20.26 272.5-18.7 271.83-17.14 270.65-15.97 269.48-14.79 267.91-14.12 266.33-13.45 264.55-13.45L264.55-13.45 256.62-13.45 256.62 0 253.47 0 253.47-35.01 264.55-35.01Q266.33-35.01 267.91-34.34 269.48-33.67 270.65-32.5 271.83-31.32 272.5-29.75 273.17-28.17 273.17-26.39L273.17-26.39 273.17-22.05ZM270.02-22.05L270.02-26.39Q270.02-27.56 269.58-28.58 269.14-29.59 268.37-30.36 267.6-31.13 266.59-31.57 265.58-32.01 264.4-32.01L264.4-32.01 256.62-32.01 256.62-16.46 264.4-16.46Q265.58-16.46 266.59-16.89 267.6-17.33 268.37-18.09 269.14-18.85 269.58-19.86 270.02-20.87 270.02-22.05L270.02-22.05ZM294.63 0L292.31-8.15 281.22-8.15 278.93 0 275.66 0 285.91-35.01 287.57-35.01 297.87 0 294.63 0ZM286.67-27.29L282.08-11.16 291.48-11.16 286.86-27.29 286.76-28.59 286.67-27.29ZM322.06 0L320.4 0 305.8-25.49 305.51-27 305.51 0 302.36 0 302.36-35.01 304-35.01 318.6-9.5 318.92-8.01 318.92-35.01 322.06-35.01 322.06 0ZM348.26-35.01L339.27-16.75 339.27 0 336.12 0 336.12-16.7 327.07-35.01 330.46-35.01 337.66-20.46 344.86-35.01 348.26-35.01Z" opacity="1" transform="matrix(1,0,0,1,0,0)" fill="#ffffff" class="wordmark-text-0" data-fill-palette-color="primary" id="text-0"></path></svg></g></svg></g></svg></g></svg></g><g><svg viewBox="0 0 57.048866059619066 57.048866059619066" height="57.048866059619066" width="57.048866059619066"><g data-palette-color="#ffffff"><rect width="15.593356722962545" height="57.048866059619066" fill="#ffffff" stroke="transparent" data-fill-palette-color="accent" x="0" fill-opacity="0.5"></rect><rect width="15.593356722962545" height="57.048866059619066" fill="#ffffff" stroke="transparent" data-fill-palette-color="accent" x="19.01628868653969" fill-opacity="0.75"></rect><rect width="15.593356722962545" height="57.048866059619066" fill="#ffffff" stroke="transparent" data-fill-palette-color="accent" x="38.03257737307938" fill-opacity="1"></rect></g></svg></g></svg></g><defs></defs></svg><rect width="395.52" height="48.806577822826384" fill="none" stroke="none" visibility="hidden"></rect></g></svg></g></svg>